<?xml version="1.0" encoding="UTF-8"?><svg xmlns="http://www.w3.org/2000/svg" viewBox="0 0 409.91 70.32"><defs><style>.d{fill:#fff;}.d,.e{mix-blend-mode:multiply;}.f{isolation:isolate;}</style></defs><g class="f"><g id="a"/><g id="b"><g id="c"><g class="e"><g><polygon class="d" points="15.09 51.67 15.09 16.6 37.73 16.6 37.73 2.26 0 2.26 0 67.83 41.64 62.69 38.91 47.86 15.09 51.67"/><polygon class="d" points="45.56 25.17 27.59 25.17 27.59 39.09 45.56 39.09 45.56 70.09 60.98 70.09 60.98 0 45.56 0 45.56 25.17"/><path class="d" d="M243.63,1.13h-38.75V39.24h38.75V1.13Zm-14.21,26.03h-10.08V13.2h10.08v13.96Z"/><rect class="d" x="250.41" width="15.44" height="52.01"/><polygon class="d" points="223.39 45.02 207.75 45.02 207.75 70.09 266.88 70.09 266.88 57.71 223.39 57.71 223.39 45.02"/><polygon class="d" points="378.67 22.53 355.79 25.37 355.79 13.58 378.02 13.58 378.02 1.13 340.71 1.13 340.71 38.95 380.74 35.28 378.67 22.53"/><polygon class="d" points="399.69 16.12 399.69 0 384.6 0 384.6 38.72 399.69 38.72 399.69 29.31 409.91 29.31 409.91 16.12 399.69 16.12"/><path class="d" d="M387.55,41.79h-31.27c-7.48,0-13.38,5.99-13.38,14.2s5.9,14.2,13.38,14.2h31.27c7.68,0,13.51-6.06,13.51-14.2s-5.83-14.2-13.51-14.2Zm-5.46,16.76h-20.42c-1.56,0-2.79-.79-2.79-2.97,0-2.45,1.23-3.05,2.79-3.05h20.42c1.82,0,3.04,.61,3.04,3.05,0,2.19-1.22,2.97-3.04,2.97Z"/><path class="d" d="M127.89,.4h-19.37V6.24h-19.69V.4h-19.24V24.86h58.31V.4Zm-19.37,17.4h-19.69v-5.21h19.69v5.21Z"/><polygon class="d" points="67.19 38.05 91.48 38.05 91.48 42.46 69.59 42.46 69.59 48.94 108.6 48.94 108.6 53.02 69.59 53.02 69.59 70.09 128.93 70.09 128.93 63.47 89.38 63.42 89.38 59.31 127.89 59.32 127.89 42.46 105.94 42.46 105.94 38.05 130.29 38.05 130.29 28.87 67.19 28.87 67.19 38.05"/><polygon class="d" points="271.97 53.75 295.78 53.75 295.78 70.32 311.28 70.32 311.28 53.75 335.09 53.75 335.09 41.06 271.97 41.06 271.97 53.75"/><polygon class="d" points="272.99 25.11 279.34 38.72 303.53 29.75 328.1 38.68 334.07 25.06 311.26 18.73 311.26 13.96 332.68 13.96 332.68 1.13 274.38 1.13 274.38 13.96 295.81 13.96 295.81 18.72 272.99 25.11"/><path class="d" d="M181.91,25.33h-8.86v-6.38c0-11.1-8.23-18.65-18.38-18.65s-18.31,7.55-18.31,18.65V51.2c0,11.1,8.23,18.64,18.31,18.64s18.38-7.54,18.38-18.64v-10.92h8.86v29.81h15.38V0h-15.38V25.33Zm-23.25,28.78c0,2.11-1.58,3.99-3.76,3.99s-3.69-1.87-3.69-3.99V17.17c0-2,1.52-4.04,3.69-4.04s3.76,2.05,3.76,4.04V54.11Z"/></g></g></g></g></g></svg>