<?xml version="1.0" encoding="UTF-8"?><svg xmlns="http://www.w3.org/2000/svg" viewBox="0 0 67.99 20.96"><defs><style>.d{fill:#fff;}</style></defs><g id="a"/><g id="b"><g id="c"><g><path class="d" d="M12.63,4.72H.73c-.4,0-.72,.33-.72,.73V14.46c0,.4,.32,.72,.72,.72H6.63v-2.89H3.5c-.32,0-.58-.24-.61-.55v-3.58c.03-.31,.29-.56,.61-.56h6.24c.4,0,.73,.32,.73,.72v9.02c0,.4-.32,.72-.73,.72H.73c-.4,0-.73,.32-.73,.72v1.44c0,.4,.33,.72,.73,.72H12.63c.4,0,.72-.32,.72-.72V5.44c0-.4-.33-.72-.72-.72"/><path class="d" d="M8.48,12.12c-.26-.5-.56-.99-.86-1.47l-.83-1.33h0c-.08-.13-.27-.13-.34,0-.56,.93-1.11,1.84-1.65,2.75-.22,.38-.29,.8-.24,1.23,.12,.9,.61,1.52,1.47,1.79,.91,.28,1.72,0,2.31-.8,.46-.63,.51-1.47,.15-2.16"/><path class="d" d="M7.34,0h-1.44c-.52,0-.94,.42-.94,.94v1.44c0,.52,.42,.94,.94,.94h1.44c.52,0,.94-.42,.94-.94V.94c0-.52-.42-.94-.94-.94"/><path class="d" d="M16.03,11.59V5.67c0-.22,.18-.4,.4-.4h4.97c.22,0,.4,.18,.4,.4v5.92c0,.22-.18,.4-.4,.4h-4.97c-.22,0-.4-.18-.4-.4m3.6-4.83h-1.39c-.22,0-.4,.18-.4,.4v2.95c0,.22,.18,.4,.4,.4h1.39c.22,0,.4-.18,.4-.4v-2.95c0-.22-.18-.4-.4-.4m4.22-2.09h1c.22,0,.4,.18,.4,.4V14.71c0,.22-.18,.4-.4,.4h-1c-.22,0-.4-.18-.4-.4V5.07c0-.22,.18-.4,.4-.4"/><path class="d" d="M31.24,12.33c-1.27,.2-3.32,.2-4.36,.16-.21-.01-.38-.18-.38-.4v-3.74c0-.16,.13-.29,.29-.29h2.18c.22,0,.4-.18,.4-.4v-.54c0-.22-.18-.4-.4-.4h-2.07c-.22,0-.4-.18-.4-.4v-.68c0-.22,.18-.4,.4-.4h3.84c.22,0,.4,.18,.4,.4v3.46c0,.22-.18,.4-.4,.4h-2.06c-.22,0-.4,.18-.4,.4v.7c0,.22,.17,.39,.39,.4,.81,.03,1.67-.04,2.37-.14,.23-.04,.44,.12,.46,.35,.02,.22,.05,.48,.07,.69,.02,.21-.12,.4-.33,.43m3.36,2.36v-4.87c0-.22-.18-.4-.4-.4h0c-.22,0-.4,.18-.4,.4v4.39c0,.22-.18,.4-.4,.4h-.96c-.22,0-.4-.18-.4-.4V5.22c0-.22,.18-.4,.4-.4h.96c.22,0,.4,.18,.4,.4v2.28c0,.22,.18,.4,.4,.4h0c.22,0,.4-.18,.4-.4v-2.43c0-.22,.18-.4,.4-.4h.9c.22,0,.4,.18,.4,.4V14.7c0,.22-.18,.4-.4,.4h-.9c-.22,0-.4-.18-.4-.4"/><path class="d" d="M40.6,7.7h0c0,.11,.09,.2,.2,.2h4.47c.2,0,.36,.16,.36,.36v.57c0,.2-.16,.36-.36,.36h-1.94c-.11,0-.2,.09-.2,.2h0c0,.12,.09,.21,.2,.21h3.34c.2,0,.36,.16,.36,.36v.61c0,.2-.16,.36-.36,.36h-8.7c-.2,0-.36-.16-.36-.36v-.61c0-.2,.16-.36,.36-.36h3.34c.11,0,.2-.09,.2-.2h0c0-.12-.09-.21-.2-.21h-1.87c-.2,0-.36-.16-.36-.36v-3.95c0-.2,.16-.36,.36-.36h5.76c.2,0,.36,.16,.36,.36v.58c0,.2-.16,.36-.36,.36h-4.42c-.11,0-.2,.09-.2,.2s.09,.2,.2,.2h4.28c.2,0,.36,.16,.36,.36v.56c0,.2-.16,.36-.36,.36h-4.28c-.11,0-.2,.09-.2,.2m1.73,7.64c-1.34,0-2.95-.63-2.95-2.08,0-1.34,1.48-2.11,2.95-2.11,1.58,0,2.95,.79,2.95,2.11,0,1.43-1.63,2.08-2.95,2.08m0-2.92c-.82,0-1.39,.38-1.39,.84s.55,.83,1.39,.83c.79,0,1.39-.37,1.39-.83s-.59-.84-1.39-.84"/><path class="d" d="M47.74,6.9v-.55c0-.2,.16-.36,.36-.36h5.23c.2,0,.36,.16,.36,.36v.55c0,.2-.16,.36-.36,.36h-5.23c-.2,0-.36-.16-.36-.36m3.08,4.11c-1.33,0-2.39-.67-2.39-1.83s1.06-1.8,2.39-1.8,2.34,.67,2.34,1.8-1.04,1.83-2.34,1.83m-1.46-5.61v-.58c0-.2,.16-.36,.36-.36h2.14c.2,0,.36,.16,.36,.36v.58c0,.2-.16,.36-.36,.36h-2.14c-.2,0-.36-.16-.36-.36m.54,9.5v-3.2c0-.2,.16-.36,.36-.36h.88c.2,0,.36,.16,.36,.36v.05c0,.2,.16,.36,.36,.36h2.1c.2,0,.36-.16,.36-.36v-.05c0-.2,.16-.36,.36-.36h.9c.2,0,.36,.16,.36,.36v3.2c0,.2-.16,.36-.36,.36h-5.31c-.2,0-.36-.16-.36-.36m.93-6.34c-.56,0-.86,.31-.86,.65,0,.31,.3,.63,.86,.63s.85-.31,.85-.63c0-.34-.3-.65-.85-.65m3.23,4.86h-2.31c-.14,0-.25,.11-.25,.26h0c0,.14,.11,.26,.25,.26h2.31c.14,0,.26-.11,.26-.26h0c0-.14-.11-.26-.26-.26m1.87-4.62v1.66c0,.2-.16,.36-.36,.36h-.9c-.2,0-.36-.16-.36-.36V4.93c0-.2,.16-.36,.36-.36h.9c.2,0,.36,.16,.36,.36v1.83c0,.2,.16,.36,.36,.36h.91c.2,0,.36,.16,.36,.36v.62c0,.2-.16,.36-.36,.36h-.91c-.2,0-.36,.16-.36,.36"/><path class="d" d="M63.53,9.79c-1.41,.21-3.12,.36-4.71,.3-.19,0-.34-.17-.34-.36V5.42c0-.2,.16-.36,.36-.36h3.98c.2,0,.36,.16,.36,.36v.63c0,.2-.16,.36-.36,.36h-2.39c-.2,0-.36,.16-.36,.36v1.62c0,.19,.16,.35,.35,.36,1.02,.01,2.1-.08,3.04-.23,.14-.02,.28,.07,.3,.22,.02,.19,.06,.46,.09,.67,.03,.19-.11,.37-.3,.4m.02,5.46c-1.63,0-2.83-.93-2.83-2.42s1.2-2.41,2.83-2.41,2.84,.99,2.84,2.41-1.19,2.42-2.84,2.42m0-3.52c-.7,0-1.24,.44-1.24,1.11s.54,1.11,1.24,1.11,1.28-.45,1.28-1.11-.55-1.11-1.28-1.11m2.79-3.18v1.49c0,.2-.16,.36-.36,.36h-.86c-.2,0-.36-.16-.36-.36V4.93c0-.2,.16-.36,.36-.36h.86c.2,0,.36,.16,.36,.36v1.58c0,.2,.16,.36,.36,.36h.93c.2,0,.36,.16,.36,.36v.61c0,.2-.16,.36-.36,.36h-.93c-.2,0-.36,.16-.36,.36"/><path class="d" d="M16.09,19.41v-2.03h.58v1.93c0,.71,.29,.95,.72,.95s.67-.24,.67-.95v-1.94h.59v2.01c0,.95-.49,1.42-1.27,1.42s-1.3-.48-1.3-1.4"/><polygon class="d" points="19.28 17.38 19.99 17.38 21.28 19.81 21.28 17.38 21.85 17.38 21.85 20.76 21.17 20.76 19.85 18.27 19.85 20.76 19.28 20.76 19.28 17.38"/><rect class="d" x="22.48" y="17.38" width=".59" height="3.38"/><polygon class="d" points="25.17 20.76 24.57 20.76 24.57 17.91 23.58 17.91 23.58 17.38 26.16 17.38 26.16 17.91 25.17 17.91 25.17 20.76"/><polygon class="d" points="26.64 17.38 28.69 17.38 28.69 17.9 27.22 17.9 27.22 18.73 28.54 18.73 28.54 19.24 27.22 19.24 27.22 20.24 28.72 20.24 28.72 20.76 26.64 20.76 26.64 17.38"/><path class="d" d="M29.28,17.38h1.07c.96,0,1.53,.47,1.53,1.58v.09c0,1.06-.57,1.71-1.54,1.71h-1.07v-3.38Zm1.08,2.89c.56,0,.94-.45,.94-1.23v-.08c0-.79-.41-1.08-.98-1.08h-.45v2.4h.5Z"/><polygon class="d" points="33.68 17.38 35.75 17.38 35.75 17.9 34.26 17.9 34.26 18.73 35.58 18.73 35.58 19.24 34.26 19.24 34.26 20.76 33.68 20.76 33.68 17.38"/><path class="d" d="M36.28,19.41v-2.03h.58v1.93c0,.71,.29,.95,.72,.95s.67-.24,.67-.95v-1.94h.59v2.01c0,.95-.49,1.42-1.27,1.42s-1.3-.48-1.3-1.4"/><polygon class="d" points="40.92 20.76 40.33 20.76 40.33 17.91 39.33 17.91 39.33 17.38 41.92 17.38 41.92 17.91 40.92 17.91 40.92 20.76"/><path class="d" d="M42.4,19.41v-2.03h.58v1.93c0,.71,.29,.95,.72,.95s.67-.24,.67-.95v-1.94h.59v2.01c0,.95-.49,1.42-1.27,1.42s-1.3-.48-1.3-1.4"/><path class="d" d="M45.59,17.38h1.13c.77,0,1.19,.38,1.19,1.02,0,.46-.28,.82-.64,.96l.89,1.41h-.68l-.75-1.29h-.56v1.29h-.58v-3.38Zm1.07,1.6c.41,0,.67-.2,.67-.57,0-.33-.24-.53-.67-.53h-.49v1.09h.49Z"/><polygon class="d" points="48.56 17.38 50.61 17.38 50.61 17.9 49.14 17.9 49.14 18.73 50.45 18.73 50.45 19.24 49.14 19.24 49.14 20.24 50.64 20.24 50.64 20.76 48.56 20.76 48.56 17.38"/><path class="d" d="M52.49,17.38h1.16c.75,0,1.2,.35,1.2,1.05s-.5,1.11-1.16,1.11h-.62v1.22h-.58v-3.38Zm1.07,1.67c.45,0,.7-.23,.7-.59,0-.39-.25-.57-.7-.57h-.49v1.16h.49Z"/><path class="d" d="M55.91,17.38h.58l1.23,3.38h-.66l-.29-.83h-1.21l-.27,.83h-.64l1.25-3.38Zm-.17,2.05h.86l-.43-1.29-.43,1.29Z"/><path class="d" d="M58.08,17.38h1.13c.77,0,1.19,.38,1.19,1.02,0,.46-.28,.82-.64,.96l.89,1.41h-.68l-.75-1.29h-.56v1.29h-.58v-3.38Zm1.07,1.6c.41,0,.67-.2,.67-.57,0-.33-.24-.53-.67-.53h-.49v1.09h.49Z"/><polygon class="d" points="62.4 20.76 61.81 20.76 61.81 17.91 60.82 17.91 60.82 17.38 63.4 17.38 63.4 17.91 62.4 17.91 62.4 20.76"/><polygon class="d" points="64.79 19.48 63.62 17.38 64.26 17.38 65.1 18.95 65.9 17.38 66.52 17.38 65.38 19.48 65.38 20.76 64.79 20.76 64.79 19.48"/></g></g></g></svg>