<?xml version="1.0" encoding="UTF-8"?><svg xmlns="http://www.w3.org/2000/svg" viewBox="0 0 432.26 270.23"><defs><style>.d{fill:#fff;}</style></defs><g id="a"/><g id="b"><g id="c"><g><g><path class="d" d="M317.02,152.13c-3.06-3.2-2.51-8.91-2.51-12.55l-.02-13.54h54.02v-23.82h-79.17v54.33c0,.14-.37,10.54,6.55,17.77,4.49,4.69,11.06,7.07,19.53,7.07h53.09v-25.16h-41.25c-4.56,0-7.8-1.56-10.23-4.11Z"/><polygon class="d" points="54.94 125.29 85.75 125.29 85.75 102.22 2.33 102.22 2.33 125.29 31.67 125.29 0 156.05 17.05 173.1 34.23 155.92 43.83 145.53 53.99 156.03 71.03 173.07 88.09 156.02 54.94 125.29"/><path class="d" d="M193.49,173.14c20.81,0,37.73-16.93,37.73-37.74s-16.92-37.73-37.73-37.73-37.73,16.93-37.73,37.73,16.93,37.74,37.73,37.74Zm0-53.8c8.86,0,16.07,7.21,16.07,16.07s-7.21,16.07-16.07,16.07-16.07-7.21-16.07-16.07,7.21-16.07,16.07-16.07Z"/><path class="d" d="M224.65,189.04l-.24-.02h-70.45v24.12l69.67,.31c.41,.01,.88-.29,1.46-.29,6.03,0,21.32-1.18,32.93-12.12,5.84-5.51,12.79-15.65,12.79-32.72V102.22h-24.12v66.1c0,6.84-1.67,11.77-5.12,15.08-5.71,5.49-15.27,5.65-16.34,5.65-.21,0-.4,0-.57-.01Z"/><path class="d" d="M112.81,102.22v23.73h-23.07v24h23.07v38.55h-16.74c-22.53,0-40.86,18.33-40.86,40.86s18.33,40.86,40.86,40.86,40.86-18.33,40.86-40.86V102.22h-24.12Zm0,112.25v14.89c0,9.23-7.51,16.74-16.74,16.74s-16.74-7.51-16.74-16.74,7.51-16.74,16.74-16.74h16.74v1.85Z"/><path class="d" d="M432.26,125.96h-22.81v-23.73h-24.12v86.29h-16.74c-22.53,0-40.86,18.33-40.86,40.86s18.33,40.86,40.86,40.86,40.86-18.33,40.86-40.86v-79.41h22.81v-24Zm-46.92,88.52v14.89c0,9.23-7.51,16.74-16.74,16.74s-16.74-7.51-16.74-16.74,7.51-16.74,16.74-16.74h16.74v1.85Z"/></g><polygon class="d" points="256.46 89.47 206.32 39.33 223.22 22.43 256.46 55.67 312.12 0 329.02 16.9 256.46 89.47"/></g></g></g></svg>