<?xml version="1.0" encoding="UTF-8"?><svg xmlns="http://www.w3.org/2000/svg" viewBox="0 0 421.05 99.09"><defs><style>.d{fill:#fff;}</style></defs><g id="a"/><g id="b"><g id="c"><g><g><polygon class="d" points="280.49 67.87 281.22 83.04 328.66 81.07 328.05 66.53 280.49 67.87"/><path class="d" d="M303.75,31.41c5.15,0,7.52,3.43,7.52,7.52s-2.61,7.52-7.52,7.52-7.52-3.43-7.52-7.52,2.45-7.52,7.52-7.52m0,29.81c14.57,0,22.31-10.17,22.31-22.29s-7.05-22.29-22.31-22.29-22.3,10.16-22.3,22.29,7.6,22.29,22.3,22.29"/><polygon class="d" points="226.41 63.74 210.58 63.74 210.58 88.85 211.13 88.85 273.16 88.85 273.16 74.79 226.41 75.16 226.41 63.74"/><path class="d" d="M221.24,46.06v-13.57h12.44v12.22c-3.58,.87-8.13,1.23-12.44,1.35m12.44,13.06h14.66V18.43h-41.83V59.26s14.21-.16,27.17-2.17v2.02Z"/><rect class="d" x="255.25" y="15.6" width="15.83" height="53.36"/><rect class="d" x="330.92" y="15.6" width="15.83" height="73.25"/><path class="d" d="M402.74,30.78v-11.19h-15.22v-5.17h-15.83v5.17h-15.22v11.19s12.87-.78,22.61-.78,23.67,.78,23.67,.78"/><path class="d" d="M405.21,77.26h-28.84v-3.16h28.84v3.16Zm-44.67-14.63v27.28h15.83v-1.06h28.84v1.06h15.83v-27.28h-60.51Z"/><path class="d" d="M379.43,41.6c4.21,0,7.07,1.6,7.07,3.81s-2.86,3.82-7.06,3.82-7.06-1.6-7.06-3.82,2.85-3.81,7.06-3.81m.17,18.07c14.82,0,21.83-6.5,21.83-14.26s-6.31-14.26-21.83-14.26-21.83,6.5-21.83,14.26,6.87,14.26,21.83,14.26"/><rect class="d" x="405.21" y="15.6" width="15.84" height="44.68"/><polygon class="d" points="129.63 58.68 155.79 58.68 155.79 63.74 135.3 63.74 135.3 77.87 176.98 77.08 176.98 88.89 192.82 88.89 192.82 63.74 171.62 63.74 171.62 58.68 198.62 58.68 198.62 45.03 129.63 45.03 129.63 58.68"/><path class="d" d="M175.25,42.92l15.17-.06c3.44-13.61,3.64-25.35,3.64-25.35h-58.48v14.01l42.41-.48c-.53,4.17-1.37,8.54-2.74,11.88"/></g><polygon class="d" points="32.99 0 0 33.03 0 99.09 66.1 99.09 99.09 66.06 99.09 0 32.99 0"/></g></g></g></svg>